<mxfile host="Electron" modified="2025-08-09T18:49:31.918Z" agent="Mozilla/5.0 (Macintosh; Intel Mac OS X 10_15_7) AppleWebKit/537.36 (KHTML, like Gecko) draw.io/24.5.1 Chrome/124.0.6367.207 Electron/30.0.6 Safari/537.36" etag="EdkDAFx-HFtGbCyqZ39D" version="24.5.1" type="device">
  <diagram name="Page-1" id="5LcMA3kwRHNBWpp1UkyC">
    <mxGraphModel dx="1242" dy="695" grid="1" gridSize="10" guides="1" tooltips="1" connect="1" arrows="1" fold="1" page="1" pageScale="1" pageWidth="1100" pageHeight="850" math="0" shadow="0">
      <root>
        <mxCell id="0" />
        <mxCell id="1" parent="0" />
        <mxCell id="XvOeeY5n2dAaE72KoK13-2" value="cco:Person" style="rounded=1;whiteSpace=wrap;html=1;" parent="1" vertex="1">
          <mxGeometry x="480" y="150" width="120" height="60" as="geometry" />
        </mxCell>
        <mxCell id="jDhnAHgz9lqgaRpsrzA--1" value="rdfs:subClassOf" style="edgeStyle=orthogonalEdgeStyle;rounded=0;orthogonalLoop=1;jettySize=auto;html=1;startArrow=classic;startFill=1;" edge="1" parent="1" source="XvOeeY5n2dAaE72KoK13-3" target="XvOeeY5n2dAaE72KoK13-2">
          <mxGeometry relative="1" as="geometry" />
        </mxCell>
        <mxCell id="XvOeeY5n2dAaE72KoK13-3" value="mds:Scientist" style="rounded=1;whiteSpace=wrap;html=1;" parent="1" vertex="1">
          <mxGeometry x="480" y="280" width="120" height="60" as="geometry" />
        </mxCell>
        <mxCell id="jDhnAHgz9lqgaRpsrzA--2" value="cco:Person" style="rounded=1;whiteSpace=wrap;html=1;" vertex="1" parent="1">
          <mxGeometry x="630" y="150" width="120" height="60" as="geometry" />
        </mxCell>
        <mxCell id="jDhnAHgz9lqgaRpsrzA--3" value="rdfs:subClassOf" style="edgeStyle=orthogonalEdgeStyle;rounded=0;orthogonalLoop=1;jettySize=auto;html=1;startArrow=classic;startFill=1;" edge="1" parent="1" source="jDhnAHgz9lqgaRpsrzA--4">
          <mxGeometry relative="1" as="geometry">
            <mxPoint x="690" y="230" as="targetPoint" />
          </mxGeometry>
        </mxCell>
        <mxCell id="jDhnAHgz9lqgaRpsrzA--4" value="mds:Scientist" style="rounded=1;whiteSpace=wrap;html=1;" vertex="1" parent="1">
          <mxGeometry x="630" y="280" width="120" height="60" as="geometry" />
        </mxCell>
        <mxCell id="jDhnAHgz9lqgaRpsrzA--5" value="cco:Person" style="rounded=1;whiteSpace=wrap;html=1;" vertex="1" parent="1">
          <mxGeometry x="790" y="150" width="120" height="60" as="geometry" />
        </mxCell>
        <mxCell id="jDhnAHgz9lqgaRpsrzA--6" value="rdfs:subClassOf" style="edgeStyle=orthogonalEdgeStyle;rounded=0;orthogonalLoop=1;jettySize=auto;html=1;startArrow=classic;startFill=1;entryX=0.5;entryY=1;entryDx=0;entryDy=0;" edge="1" parent="1" target="jDhnAHgz9lqgaRpsrzA--5">
          <mxGeometry relative="1" as="geometry">
            <mxPoint x="850" y="230" as="targetPoint" />
            <mxPoint x="850" y="260" as="sourcePoint" />
          </mxGeometry>
        </mxCell>
        <mxCell id="jDhnAHgz9lqgaRpsrzA--7" value="mds:Scientist" style="rounded=1;whiteSpace=wrap;html=1;" vertex="1" parent="1">
          <mxGeometry x="790" y="280" width="120" height="60" as="geometry" />
        </mxCell>
        <mxCell id="jDhnAHgz9lqgaRpsrzA--8" value="cco:Person" style="rounded=1;whiteSpace=wrap;html=1;" vertex="1" parent="1">
          <mxGeometry x="950" y="150" width="120" height="60" as="geometry" />
        </mxCell>
        <mxCell id="jDhnAHgz9lqgaRpsrzA--9" value="rdfs:subClassOf" style="edgeStyle=orthogonalEdgeStyle;rounded=0;orthogonalLoop=1;jettySize=auto;html=1;startArrow=classic;startFill=1;entryX=0.5;entryY=1;entryDx=0;entryDy=0;" edge="1" parent="1">
          <mxGeometry relative="1" as="geometry">
            <mxPoint x="1010" y="223" as="targetPoint" />
            <mxPoint x="1010" y="273" as="sourcePoint" />
          </mxGeometry>
        </mxCell>
        <mxCell id="jDhnAHgz9lqgaRpsrzA--10" value="mds:Scientist" style="rounded=1;whiteSpace=wrap;html=1;" vertex="1" parent="1">
          <mxGeometry x="950" y="280" width="120" height="60" as="geometry" />
        </mxCell>
      </root>
    </mxGraphModel>
  </diagram>
</mxfile>
